<?xml version="1.0" encoding="utf-8"?>
<svg version="1.1" xmlns:xlink="http://www.w3.org/1999/xlink" width="33px" height="33px" xmlns="http://www.w3.org/2000/svg">
  <defs>
    <filter x="59px" y="508px" width="33px" height="33px" filterUnits="userSpaceOnUse" id="filter7">
      <feOffset dx="1" dy="0" in="SourceAlpha" result="shadowOffsetInner" />
      <feGaussianBlur stdDeviation="1" in="shadowOffsetInner" result="shadowGaussian" />
      <feComposite in2="shadowGaussian" operator="atop" in="SourceAlpha" result="shadowComposite" />
      <feColorMatrix type="matrix" values="0 0 0 0 0.788235294117647  0 0 0 0 0.788235294117647  0 0 0 0 0.788235294117647  0 0 0 0.34901960784313724 0  " in="shadowComposite" />
    </filter>
    <g id="widget8">
      <path d="M 74.5 510  C 82.62 510  89 516.38  89 524.5  C 89 532.62  82.62 539  74.5 539  C 66.38 539  60 532.62  60 524.5  C 60 516.38  66.38 510  74.5 510  Z " fill-rule="nonzero" fill="#ffffff" stroke="none" />
      <path d="M 74.5 510.5  C 82.34 510.5  88.5 516.66  88.5 524.5  C 88.5 532.34  82.34 538.5  74.5 538.5  C 66.66 538.5  60.5 532.34  60.5 524.5  C 60.5 516.66  66.66 510.5  74.5 510.5  Z " stroke-width="1" stroke="#d7d7d7" fill="none" />
    </g>
  </defs>
  <g transform="matrix(1 0 0 1 -59 -508 )">
    <use xlink:href="#widget8" filter="url(#filter7)" />
    <use xlink:href="#widget8" />
  </g>
</svg>