<?xml version="1.0" encoding="utf-8"?>
<svg version="1.1" xmlns:xlink="http://www.w3.org/1999/xlink" width="22px" height="22px" xmlns="http://www.w3.org/2000/svg">
  <defs>
    <filter x="144px" y="659px" width="22px" height="22px" filterUnits="userSpaceOnUse" id="filter5">
      <feOffset dx="0" dy="0" in="SourceAlpha" result="shadowOffsetInner" />
      <feGaussianBlur stdDeviation="0.5" in="shadowOffsetInner" result="shadowGaussian" />
      <feComposite in2="shadowGaussian" operator="atop" in="SourceAlpha" result="shadowComposite" />
      <feColorMatrix type="matrix" values="0 0 0 0 0  0 0 0 0 0  0 0 0 0 0  0 0 0 0.34901960784313724 0  " in="shadowComposite" />
    </filter>
    <g id="widget6">
      <path d="M 155 660  C 160.6 660  165 664.4  165 670  C 165 675.6  160.6 680  155 680  C 149.4 680  145 675.6  145 670  C 145 664.4  149.4 660  155 660  Z " fill-rule="nonzero" fill="#009999" stroke="none" />
      <path d="M 155 660.5  C 160.32 660.5  164.5 664.68  164.5 670  C 164.5 675.32  160.32 679.5  155 679.5  C 149.68 679.5  145.5 675.32  145.5 670  C 145.5 664.68  149.68 660.5  155 660.5  Z " stroke-width="1" stroke="#009999" fill="none" />
    </g>
  </defs>
  <g transform="matrix(1 0 0 1 -144 -659 )">
    <use xlink:href="#widget6" filter="url(#filter5)" />
    <use xlink:href="#widget6" />
  </g>
</svg>